<?xml version="1.0" standalone="no"?>
<!DOCTYPE svg PUBLIC "-//W3C//DTD SVG 20010904//EN"
 "http://www.w3.org/TR/2001/REC-SVG-20010904/DTD/svg10.dtd">
<svg version="1.0" xmlns="http://www.w3.org/2000/svg"
 width="900.000000pt" height="900.000000pt" viewBox="0 0 900.000000 900.000000"
 preserveAspectRatio="xMidYMid meet">
<metadata>
Created by potrace 1.11, written by Peter Selinger 2001-2013
</metadata>
<g transform="translate(0.000000,900.000000) scale(0.100000,-0.100000)"
fill="#000000" stroke="none">
<path d="M2605 8993 c-11 -3 -25 -10 -32 -15 -7 -5 -17 -7 -23 -3 -5 3 -10 2
-10 -3 0 -5 -6 -9 -12 -9 -17 0 -86 -32 -120 -55 -16 -11 -28 -16 -28 -11 0 4
-4 3 -8 -2 -4 -6 -27 -24 -52 -40 -25 -17 -50 -34 -56 -40 -6 -5 -29 -23 -50
-40 -21 -16 -51 -42 -66 -57 -16 -14 -28 -24 -28 -22 0 3 -7 -1 -15 -8 -17
-16 -24 -21 -95 -74 -62 -47 -110 -73 -149 -81 -41 -9 -183 -7 -190 3 -3 5
-15 10 -26 12 -66 11 -275 156 -275 191 0 6 -6 11 -14 11 -8 0 -18 9 -21 20
-3 11 -11 20 -16 20 -5 0 -9 6 -9 14 0 8 -4 16 -9 18 -6 2 -12 16 -15 32 -3
16 -8 31 -12 35 -4 3 -4 -2 -1 -11 4 -11 1 -18 -6 -18 -7 0 -8 -3 -2 -8 6 -4
11 -18 12 -32 1 -21 8 -58 17 -95 2 -5 9 -23 16 -40 7 -16 14 -33 14 -37 1 -4
7 -13 13 -19 7 -7 13 -19 13 -26 0 -7 5 -13 10 -13 6 0 10 -5 10 -11 0 -29
152 -189 180 -189 6 0 18 -4 28 -9 52 -26 71 -33 81 -27 6 4 11 0 11 -8 0 -14
-32 -39 -55 -42 -5 -1 -12 -3 -15 -4 -3 -1 -12 -3 -20 -5 -8 -1 -35 -8 -60
-15 -25 -7 -49 -13 -55 -15 -36 -8 -165 -67 -165 -76 0 -4 -10 -9 -23 -13 -23
-5 -56 -33 -89 -74 -10 -12 -15 -22 -12 -22 3 0 -4 -13 -16 -30 -12 -16 -18
-30 -13 -30 4 0 1 -6 -7 -13 -8 -7 -17 -21 -18 -32 -2 -11 -8 -23 -14 -26 -5
-3 -10 -10 -10 -15 0 -9 -10 -36 -30 -81 -7 -16 -12 -33 -13 -39 0 -6 -5 -22
-12 -35 -15 -31 -26 -62 -27 -73 -1 -12 -26 -21 -26 -9 0 4 -17 9 -38 9 -52 2
-111 11 -149 23 -18 5 -33 8 -33 6 0 -11 -141 70 -173 99 -20 18 -37 31 -37
27 0 -3 -12 11 -27 32 -14 20 -32 37 -40 37 -8 0 -11 -5 -8 -10 4 -6 11 -8 16
-5 5 3 7 0 4 -7 -3 -7 11 -37 30 -66 19 -30 35 -56 35 -58 0 -2 11 -16 25 -31
47 -53 75 -88 75 -95 0 -5 4 -8 10 -8 5 0 23 -13 38 -30 16 -16 35 -30 41 -30
7 0 9 -4 6 -10 -3 -5 1 -10 9 -10 9 0 16 -5 16 -11 0 -5 4 -8 9 -5 5 3 11 -1
15 -9 3 -8 12 -15 21 -15 8 0 15 -5 15 -11 0 -5 5 -7 10 -4 6 3 10 2 10 -4 0
-6 11 -13 25 -17 14 -3 25 -7 25 -9 0 -3 -51 -117 -81 -182 -11 -24 -24 -45
-30 -48 -5 -4 -9 -15 -9 -26 0 -10 -4 -19 -8 -19 -4 0 -18 -21 -31 -47 -25
-52 -118 -199 -142 -223 -8 -8 -34 -40 -58 -70 -54 -67 -156 -170 -171 -171
-5 -1 -14 -3 -20 -4 -5 -1 -29 -3 -52 -4 -33 -1 -39 -4 -30 -13 18 -18 163
-20 217 -4 24 8 46 11 49 8 4 -3 6 0 6 6 0 7 3 11 8 10 14 -3 148 69 178 97 7
5 30 25 52 43 22 18 64 56 94 85 29 28 50 48 46 43 -3 -5 -4 -15 -1 -22 3 -8
1 -14 -5 -14 -6 0 -14 -15 -18 -32 -4 -18 -9 -36 -10 -40 -1 -5 -3 -10 -4 -13
-1 -3 -4 -9 -5 -15 -1 -5 -4 -11 -5 -12 -2 -3 -7 -33 -12 -75 -1 -7 -4 -13 -8
-13 -3 0 -6 -10 -7 -22 -1 -13 -4 -34 -7 -48 -16 -69 -16 -67 -31 -205 -3 -22
-7 -76 -10 -120 -3 -56 -9 -83 -20 -91 -8 -6 -15 -17 -15 -23 0 -7 -4 -9 -10
-6 -5 3 -10 1 -10 -4 0 -6 -6 -11 -14 -11 -8 0 -17 -7 -20 -16 -3 -8 -10 -13
-14 -10 -5 3 -26 -3 -46 -13 -20 -11 -32 -22 -27 -25 5 -4 13 -1 16 5 4 5 13
8 21 5 7 -3 16 -1 19 4 3 5 14 7 25 5 11 -2 20 1 20 7 0 6 3 8 7 5 3 -4 16 0
29 8 19 12 23 12 28 0 3 -8 3 -24 0 -37 -2 -13 -6 -41 -9 -63 -10 -82 -17
-121 -27 -165 -5 -25 -12 -58 -15 -75 -3 -16 -9 -35 -14 -41 -5 -7 -9 -16 -7
-20 4 -16 -14 -79 -25 -85 -5 -4 -6 -12 -3 -18 5 -7 26 9 56 40 27 29 47 56
44 60 -3 5 2 9 10 9 9 0 16 6 16 14 0 8 4 16 8 18 11 4 82 113 82 126 0 6 4
12 8 14 10 4 73 133 77 157 1 9 5 15 8 14 4 -2 10 -3 14 -3 4 0 2 -5 -4 -11
-6 -6 -7 -25 -3 -49 4 -22 3 -37 -1 -34 -5 3 -5 -6 1 -21 5 -14 11 -40 12 -58
1 -18 4 -36 7 -42 3 -5 6 -18 7 -27 1 -10 2 -19 4 -20 1 -2 3 -10 5 -18 2 -8
11 -37 20 -65 10 -27 19 -57 20 -65 2 -8 4 -16 5 -17 2 -2 4 -7 5 -13 1 -5 4
-12 5 -15 1 -3 3 -9 4 -14 0 -5 4 -13 8 -17 5 -4 8 -16 8 -26 0 -10 5 -18 12
-18 6 0 9 -3 5 -6 -3 -4 0 -19 9 -35 8 -16 12 -29 9 -29 -3 0 1 -13 10 -30 9
-16 13 -30 9 -30 -4 0 -1 -7 6 -15 7 -8 10 -15 6 -15 -3 0 0 -16 8 -35 8 -19
13 -35 10 -35 -3 0 -1 -8 4 -17 16 -30 25 -112 26 -228 1 -100 -1 -114 -24
-155 -14 -25 -29 -50 -35 -57 -5 -7 -16 -19 -23 -28 -23 -27 -2 -36 26 -10 15
14 31 25 36 25 4 0 25 19 45 42 20 23 45 51 56 63 26 28 65 82 65 92 0 4 10
19 21 33 14 16 19 19 15 8 -3 -10 0 -18 6 -18 7 0 7 -4 -1 -13 -6 -8 -8 -17
-5 -20 4 -3 6 -26 7 -51 0 -25 3 -46 7 -46 3 0 6 -14 5 -31 0 -30 -3 -32 -105
-70 -92 -34 -147 -52 -200 -66 -66 -18 -185 3 -294 52 -22 10 -144 11 -201 2
-84 -14 -102 -18 -165 -40 -84 -28 -181 -79 -248 -129 l-54 -40 -46 15 c-26 8
-66 18 -89 22 l-43 7 0 -2351 0 -2351 4023 0 c3820 0 4025 1 4039 18 49 55
248 369 302 473 34 67 66 124 72 126 5 2 17 -9 26 -24 9 -16 25 -38 35 -50 10
-11 24 -29 31 -40 124 -179 218 -308 287 -395 l85 -108 50 0 50 0 0 1114 c0
712 -4 1124 -10 1141 -10 26 -105 161 -141 200 -100 108 -192 194 -229 214
-160 83 -219 111 -248 116 -33 5 -191 63 -286 104 -118 51 -300 196 -312 250
-4 14 -11 31 -16 37 -16 21 -21 58 -22 154 -1 92 9 196 23 233 5 13 23 -6 79
-85 39 -57 84 -117 99 -135 16 -17 50 -60 78 -95 65 -83 362 -378 381 -378 8
0 14 -4 14 -8 0 -13 71 -32 86 -24 10 6 8 21 -10 73 -13 36 -30 81 -40 99 -19
38 -14 50 9 26 9 -9 33 -29 53 -44 21 -15 40 -31 44 -37 4 -5 8 -6 8 -1 0 4
11 1 24 -7 37 -25 74 -29 85 -9 10 20 5 81 -15 172 -8 36 -16 75 -18 88 l-4
22 29 -24 c27 -23 268 -145 317 -160 22 -7 22 -7 22 114 0 114 -2 124 -27 168
-15 26 -32 52 -38 58 -31 33 -99 136 -102 155 -2 12 -10 41 -17 63 -8 23 -17
50 -21 61 -4 12 5 6 21 -15 35 -43 171 -180 179 -180 3 0 5 705 5 1566 0 1353
-2 1565 -14 1555 -16 -13 -15 -31 -19 318 -2 110 -7 176 -13 178 -6 2 -34 -23
-62 -56 -29 -33 -66 -73 -82 -90 -17 -16 -30 -32 -30 -36 0 -3 -9 -15 -20 -27
-19 -20 -20 -21 -27 -2 -7 20 -16 32 -45 65 -10 10 -18 22 -18 27 0 13 -120
131 -140 137 -11 4 -20 11 -20 16 0 5 -6 9 -14 9 -8 0 -21 6 -28 13 -35 35
-248 142 -330 167 -35 10 -97 31 -138 45 -41 15 -82 28 -90 30 -8 2 -51 15
-95 29 -44 14 -82 25 -85 25 -3 0 -21 7 -41 15 -20 8 -39 13 -42 10 -3 -3 -15
0 -28 6 -34 19 -365 21 -464 3 -75 -14 -251 -21 -261 -10 -2 2 13 39 35 81 22
42 37 76 34 76 -3 0 0 6 6 14 7 8 14 23 16 35 3 12 7 31 11 44 15 61 16 76 16
132 -1 63 -2 66 -20 132 -32 109 -193 294 -358 409 -70 49 -84 55 -124 53 -73
-4 -180 -59 -290 -148 -24 -20 -47 -35 -50 -34 -30 9 -210 21 -210 14 0 -3
-12 -6 -27 -7 -67 -2 -212 -55 -267 -98 -99 -76 -183 -188 -202 -267 -12 -48
-9 -125 5 -179 12 -43 27 -66 69 -107 29 -29 62 -53 72 -53 11 0 20 -4 20 -10
0 -5 9 -10 19 -10 10 0 21 -7 25 -15 10 -26 79 -19 107 11 l24 25 -28 -10
c-43 -17 -66 -13 -99 14 -16 14 -27 25 -24 25 3 0 -6 16 -19 36 -14 20 -25 42
-26 48 0 6 -3 20 -5 31 -12 52 -10 143 2 174 23 56 91 104 204 141 79 27 92
30 155 36 28 2 55 7 62 9 27 9 20 -18 -32 -120 -30 -59 -55 -115 -55 -124 0
-9 -4 -21 -9 -27 -5 -5 -12 -25 -15 -44 -3 -19 -8 -46 -11 -60 -10 -48 -17
-202 -11 -244 12 -76 74 -126 155 -126 28 0 44 7 63 28 43 46 78 117 83 168 2
27 7 60 10 74 3 20 -10 9 -63 -47 -103 -110 -158 -135 -200 -90 -28 30 -32 60
-15 131 28 123 106 246 222 352 29 27 61 53 70 58 9 5 21 15 28 22 12 12 51 9
88 -5 185 -74 290 -153 359 -272 34 -56 61 -144 59 -189 -4 -93 -6 -101 -39
-115 -18 -7 -41 -12 -51 -11 -10 2 -22 1 -28 -3 -5 -3 -17 -7 -26 -8 -9 -1
-29 -8 -45 -14 -16 -7 -31 -13 -34 -14 -70 -21 -230 -121 -300 -187 -26 -24
-68 -61 -95 -83 -128 -103 -222 -220 -305 -378 -19 -37 -37 -67 -40 -67 -6 0
-52 42 -184 165 -89 83 -142 123 -107 82 7 -10 11 -17 8 -17 -3 0 3 -30 14
-67 11 -38 22 -77 24 -87 5 -22 24 -84 32 -106 3 -8 7 -19 8 -25 2 -5 12 -43
24 -83 13 -41 20 -76 18 -78 -3 -3 -26 8 -53 23 -43 25 -170 88 -229 113 -11
5 -72 34 -136 64 -128 60 -144 66 -146 51 -2 -25 56 -147 137 -290 32 -55 72
-129 90 -164 l32 -64 -43 34 c-65 51 -88 62 -108 47 -13 -10 -14 -10 -3 2 16
19 15 30 -3 30 -8 0 -15 5 -15 10 0 6 -7 10 -15 10 -8 0 -15 5 -15 10 0 6 -7
10 -15 10 -8 0 -15 5 -15 10 0 6 -7 10 -15 10 -8 0 -15 4 -15 10 0 5 -7 6 -17
3 -9 -4 -14 -2 -10 3 3 6 -2 15 -12 21 -67 42 61 -108 193 -226 15 -13 25 -25
24 -26 -5 -4 -132 -56 -143 -58 -10 -3 -70 -31 -200 -93 -38 -19 -75 -34 -82
-34 -27 0 -22 -20 9 -36 40 -21 232 -28 318 -13 30 6 69 13 85 16 17 3 35 6
40 7 6 1 16 5 23 10 7 4 16 6 18 3 3 -3 22 1 41 10 26 11 39 11 47 3 8 -8 -2
-22 -39 -53 -27 -23 -60 -52 -72 -64 -12 -12 -32 -24 -43 -28 -12 -4 -19 -9
-16 -12 6 -7 -56 -49 -176 -123 -18 -11 -49 -27 -68 -35 -48 -22 -133 -76
-147 -95 -7 -10 -8 -21 -2 -32 8 -14 23 -18 73 -18 68 0 259 43 264 60 2 6 10
10 18 10 10 0 5 -15 -18 -52 -126 -200 -180 -380 -181 -591 0 -115 5 -130 46
-129 27 0 137 51 137 64 0 4 5 8 10 8 6 0 16 5 23 10 45 37 145 114 160 122
17 9 17 8 2 -21 -8 -17 -16 -34 -16 -38 -2 -11 -8 -29 -16 -50 -7 -20 -10 -30
-12 -41 -2 -15 -186 -146 -221 -157 -11 -3 -20 -10 -20 -15 0 -5 -6 -10 -12
-12 -7 -2 -75 -36 -150 -77 -108 -58 -136 -77 -135 -93 2 -35 59 -51 167 -50
94 1 152 8 217 28 32 9 64 17 71 17 6 0 12 4 12 9 0 4 9 8 20 8 11 0 20 4 20
8 0 4 12 13 28 19 15 6 43 22 62 34 l35 23 -25 -29 c-44 -51 -55 -66 -109
-145 -25 -36 -50 -68 -55 -72 -6 -4 -7 -8 -2 -8 5 0 2 -8 -7 -17 -41 -47 -98
-192 -133 -338 -3 -11 -7 -65 -10 -119 -10 -206 59 -363 236 -533 44 -42 129
-93 155 -93 20 0 35 24 25 40 -6 8 -10 11 -10 5 -2 -18 -50 98 -65 154 -21 83
-25 112 -14 106 5 -4 7 -11 4 -16 -4 -5 -2 -9 3 -9 5 0 9 -6 9 -13 0 -39 127
-200 198 -252 58 -43 259 -135 325 -150 8 -2 16 -4 18 -5 1 -2 5 -3 10 -4 4
-1 25 -7 46 -14 22 -6 43 -9 48 -6 4 3 8 1 8 -3 0 -5 20 -14 44 -21 24 -6 67
-25 96 -42 28 -16 54 -30 57 -30 13 0 -7 142 -28 191 -22 53 -100 171 -159
239 -42 50 -37 56 16 19 58 -40 147 -75 204 -82 27 -3 50 -12 60 -25 21 -25
117 -75 130 -67 6 4 10 1 10 -5 0 -6 4 -9 9 -5 5 3 41 7 79 10 l70 5 -4 -43
c-5 -42 -11 -82 -14 -82 -1 0 -3 -8 -5 -18 -8 -43 -62 -134 -115 -196 -53 -61
-64 -69 -153 -103 -52 -21 -109 -40 -126 -41 -17 -2 -34 -7 -38 -10 -3 -4 -14
-7 -23 -7 -21 0 -179 -63 -255 -102 -85 -44 -110 -63 -194 -148 -114 -115
-155 -175 -221 -325 -56 -125 -166 -342 -180 -355 -3 -3 -27 -39 -53 -81 -26
-42 -75 -104 -109 -137 -139 -134 -239 -227 -247 -230 -5 -2 -5 19 0 45 5 26
12 68 15 93 3 25 7 56 9 70 3 14 7 55 10 91 3 36 8 76 10 90 22 110 26 156 25
243 -2 159 -4 186 -13 186 -4 0 -5 5 -2 10 5 9 -12 158 -30 255 -11 61 -87
234 -107 243 -5 2 -8 9 -8 15 0 7 -23 41 -50 77 -26 36 -45 69 -41 75 11 14 5
225 -8 257 -10 25 -152 148 -171 148 -13 0 -28 31 -35 68 -11 64 -39 112 -64
112 -6 0 -11 5 -11 11 0 5 -4 8 -8 5 -15 -9 -61 44 -72 83 -16 60 -67 95 -175
120 -95 23 -124 29 -140 32 -5 1 -30 7 -55 15 -47 13 -111 24 -168 29 -37 2
-51 15 -127 115 -27 36 -57 73 -67 83 -10 10 -18 21 -18 26 0 17 -157 168
-187 180 -18 7 -31 18 -30 23 2 10 44 63 80 100 9 10 17 20 17 23 0 5 62 94
87 125 7 8 34 43 62 78 79 99 124 153 157 187 43 44 104 131 104 150 0 8 4 15
9 15 14 0 136 246 146 295 1 6 3 12 4 15 4 8 14 53 25 108 3 12 8 27 12 33 13
22 47 155 48 192 0 9 3 17 6 17 3 0 6 11 6 25 1 14 5 33 9 43 5 9 10 28 12 42
8 48 10 55 23 83 7 15 16 27 20 27 4 0 13 14 20 30 7 17 16 30 20 30 4 0 10 8
14 18 3 9 11 26 18 36 65 96 118 183 118 193 0 6 4 13 9 15 10 4 153 233 225
362 19 34 24 52 17 59 -8 8 -11 8 -11 0 0 -6 -26 -30 -57 -54 -74 -57 -94 -68
-69 -41 11 12 16 22 12 22 -3 0 0 13 8 29 9 16 12 31 9 35 -4 3 -1 6 6 6 7 0
9 5 6 10 -3 6 -3 16 2 23 4 6 8 20 9 30 1 9 2 23 3 31 0 8 36 49 79 93 43 43
91 95 106 116 43 59 78 143 72 174 -13 73 -33 141 -47 159 -5 6 -10 19 -12 30
-5 22 -27 76 -69 161 -16 34 -27 66 -24 71 9 15 -52 222 -66 222 -4 0 -5 7 -2
15 4 8 1 15 -5 15 -6 0 -11 6 -11 14 0 15 -27 44 -100 112 -51 47 -123 124
-116 124 8 0 -32 109 -70 187 -38 79 -92 163 -106 163 -4 0 -8 5 -8 11 0 13
-89 99 -103 99 -6 0 -8 3 -4 6 10 11 -85 72 -243 157 -41 22 -84 45 -95 52
-11 7 -51 29 -90 50 -141 76 -175 97 -175 106 0 6 -4 8 -9 5 -4 -3 -19 3 -31
14 -12 11 -31 22 -41 25 -11 4 -19 11 -19 16 0 5 -6 9 -14 9 -7 0 -24 9 -38
19 -13 11 -53 34 -88 52 -36 18 -68 36 -71 42 -3 5 -10 9 -15 8 -5 0 -34 12
-64 26 -30 15 -59 28 -65 29 -5 2 -44 14 -85 27 -64 21 -94 25 -205 25 -71 0
-139 -2 -150 -5z m3966 -868 c67 -8 173 -89 217 -165 14 -25 31 -48 37 -52 5
-4 7 -8 3 -8 -4 0 -1 -18 7 -40 17 -49 11 -247 -8 -266 -7 -7 -12 29 -7 51 3
15 -51 175 -60 175 -4 0 -12 12 -19 26 -15 34 -77 110 -120 149 -83 74 -98 85
-128 102 -50 27 -50 43 0 37 23 -2 58 -7 78 -9z m-2074 -1480 c0 -8 -4 -12 -9
-9 -5 3 -6 10 -3 15 9 13 12 11 12 -6z m-2334 -192 c-7 -2 -19 -2 -25 0 -7 3
-2 5 12 5 14 0 19 -2 13 -5z m6197 -373 c0 -5 -2 -10 -4 -10 -3 0 -8 5 -11 10
-3 6 -1 10 4 10 6 0 11 -4 11 -10z m-4207 -328 c-10 -10 -20 -17 -22 -16 -6 5
20 34 30 34 5 0 1 -8 -8 -18z m1847 -420 c0 -2 -3 -1 -7 1 -5 2 -16 7 -26 10
-10 4 -16 11 -12 17 5 8 45 -17 45 -28z m1345 -802 c-3 -5 -12 -10 -18 -10 -7
0 -6 4 3 10 19 12 23 12 15 0z m-3790 -67 c-14 -16 -49 -62 -77 -103 -29 -41
-62 -85 -75 -97 -13 -13 -22 -23 -19 -23 4 0 -2 -8 -12 -18 -10 -10 -26 -29
-35 -42 -9 -13 -19 -21 -23 -17 -3 3 27 46 67 95 41 49 99 121 129 160 30 40
58 72 63 72 4 0 -4 -12 -18 -27z m4698 -964 c10 -11 17 -23 14 -25 -2 -2 -13
7 -25 21 -12 14 -18 25 -14 25 4 0 16 -9 25 -21z"/>
<path d="M460 7966 c0 -2 8 -10 18 -17 15 -13 16 -12 3 4 -13 16 -21 21 -21
13z"/>
</g>
</svg>
